<svg viewBox="0 0 300.0001 255.5723" width="5000px" height="4259.536969135446px" xmlns="http://www.w3.org/2000/svg" xmlns:xlink="http://www.w3.org/1999/xlink" preserveAspectRatio="none"><defs></defs><style>.a6izo4zJpcolor {fill:#F77527;fill-opacity:1;}.aD6z1nYkhcolor {fill:#81D6FF;fill-opacity:1;}.aLgOaV3zRcolors-0 {fill:#81D6FF;fill-opacity:1;}</style><g opacity="1" transform="rotate(0 66.58080000000001 237.2429)">
        <svg width="166.8386" height="18.3294" x="66.58080000000001" y="237.2429" version="1.1" preserveAspectRatio="none" viewBox="0.56 -28.32 260.68 28.64">
          <g transform="matrix(1 0 0 1 0 0)" class="a6izo4zJpcolor"><path d="M22.04-26.48L22.04-23.60L12.80-23.60L12.80 0L9.80 0L9.80-23.60L0.56-23.60L0.56-26.48L22.04-26.48Z M34.20-2.40L34.20-2.40Q38.24-2.40 40-5.76L40-5.76L43.28-5.76Q42.24-3.04 39.98-1.36Q37.72 0.32 34.16 0.32L34.16 0.32Q29.64 0.32 26.80-2.68L26.80-2.68Q24.04-5.60 24.04-10L24.04-10Q24.04-14.44 26.68-17.32L26.68-17.32Q29.48-20.32 33.96-20.32L33.96-20.32Q38.44-20.32 41.24-17.32L41.24-17.32Q43.88-14.44 43.88-10L43.88-10L43.88-8.80L27.12-8.80Q27.44-6.04 29.32-4.24L29.32-4.24Q31.24-2.40 34.20-2.40ZM33.96-17.60L33.96-17.60Q31.20-17.60 29.32-15.88L29.32-15.88Q27.56-14.24 27.16-11.60L27.16-11.60L40.76-11.60Q40.36-14.24 38.60-15.88L38.60-15.88Q36.72-17.60 33.96-17.60Z M60.80-2.40L60.80-2.40Q62.72-2.40 64.20-3.48Q65.68-4.56 66.36-6.28L66.36-6.28L69.60-6.28Q68.68-3.32 66.24-1.52L66.24-1.52Q63.68 0.32 60.16 0.32L60.16 0.32Q55.76 0.32 53-2.68L53-2.68Q50.32-5.60 50.32-10L50.32-10Q50.32-14.40 53-17.32L53-17.32Q55.76-20.32 60.16-20.32L60.16-20.32Q63.68-20.32 66.24-18.48L66.24-18.48Q68.68-16.68 69.60-13.72L69.60-13.72L66.36-13.72Q65.68-15.44 64.20-16.52Q62.72-17.60 60.80-17.60Q58.88-17.60 57.54-17Q56.20-16.40 55.28-15.36L55.28-15.36Q53.32-13.20 53.32-10L53.32-10Q53.32-6.80 55.28-4.64L55.28-4.64Q57.28-2.40 60.80-2.40Z M77.32-28L80.32-28L80.32-16.88Q81.40-18.32 82.96-19.32Q84.52-20.32 86.52-20.32Q88.52-20.32 89.96-19.76Q91.40-19.20 92.48-18.08L92.48-18.08Q94.96-15.64 94.96-11.64L94.96-11.64L94.96 0L91.96 0L91.96-11.56Q91.96-14.32 90.40-15.96Q88.84-17.60 86.36-17.60L86.36-17.60Q83.84-17.60 82.08-15.92L82.08-15.92Q80.32-14.20 80.32-11.52L80.32-11.52L80.32 0L77.32 0L77.32-28Z M125.48-25.48L125.08-25.48Q122.96-25.48 121.90-24.54Q120.84-23.60 120.84-21.52L120.84-21.52L120.84-20L125.48-20L125.48-17.36L120.84-17.36L120.84 0L117.84 0L117.84-17.36L114.40-17.36L114.40-20L117.84-20L117.84-21.76Q117.84-25.04 119.80-26.68Q121.76-28.32 125.24-28.32L125.24-28.32L125.48-28.32L125.48-25.48Z M141.04-20.32L141.04-20.32Q145.52-20.32 148.32-17.32L148.32-17.32Q150.96-14.44 150.96-10L150.96-10Q150.96-5.56 148.32-2.68L148.32-2.68Q145.52 0.32 141.04 0.32L141.04 0.32Q136.56 0.32 133.76-2.68L133.76-2.68Q131.12-5.56 131.12-10L131.12-10Q131.12-14.44 133.76-17.32L133.76-17.32Q136.56-20.32 141.04-20.32ZM141.04-2.40L141.04-2.40Q144.28-2.40 146.16-4.64L146.16-4.64Q147.96-6.76 147.96-10L147.96-10Q147.96-13.24 146.16-15.36L146.16-15.36Q144.28-17.60 141.04-17.60L141.04-17.60Q137.80-17.60 135.92-15.36L135.92-15.36Q134.12-13.24 134.12-10L134.12-10Q134.12-6.76 135.92-4.64L135.92-4.64Q137.80-2.40 141.04-2.40Z M169.28-20.32L169.48-20.32L169.48-17.32L169.12-17.32Q165.88-17.32 163.84-14.72L163.84-14.72Q161.92-12.24 161.92-8.80L161.92-8.80L161.92 0L158.92 0L158.92-20L161.92-20L161.92-15.08Q162.88-18.20 166.08-19.68L166.08-19.68Q167.40-20.32 169.28-20.32L169.28-20.32Z M189.88-26.48L192.88-26.48L192.88-2.88L207.32-2.88L207.32 0L189.88 0L189.88-26.48Z M214.56 0L214.56-20L217.56-20L217.56 0L214.56 0ZM214.44-27.28L217.68-27.28L217.68-23.36L214.44-23.36L214.44-27.28Z M235.76-25.48L235.36-25.48Q233.24-25.48 232.18-24.54Q231.12-23.60 231.12-21.52L231.12-21.52L231.12-20L235.76-20L235.76-17.36L231.12-17.36L231.12 0L228.12 0L228.12-17.36L224.68-17.36L224.68-20L228.12-20L228.12-21.76Q228.12-25.04 230.08-26.68Q232.04-28.32 235.52-28.32L235.52-28.32L235.76-28.32L235.76-25.48Z M251.56-2.40L251.56-2.40Q255.60-2.40 257.36-5.76L257.36-5.76L260.64-5.76Q259.60-3.04 257.34-1.36Q255.08 0.32 251.52 0.32L251.52 0.32Q247 0.32 244.16-2.68L244.16-2.68Q241.40-5.60 241.40-10L241.40-10Q241.40-14.44 244.04-17.32L244.04-17.32Q246.84-20.32 251.32-20.32L251.32-20.32Q255.80-20.32 258.60-17.32L258.60-17.32Q261.24-14.44 261.24-10L261.24-10L261.24-8.80L244.48-8.80Q244.80-6.04 246.68-4.24L246.68-4.24Q248.60-2.40 251.56-2.40ZM251.32-17.60L251.32-17.60Q248.56-17.60 246.68-15.88L246.68-15.88Q244.92-14.24 244.52-11.60L244.52-11.60L258.12-11.60Q257.72-14.24 255.96-15.88L255.96-15.88Q254.08-17.60 251.32-17.60Z"></path></g>
        </svg>
      </g><g opacity="1" transform="rotate(0 0 175.86069999999998)">
        <svg width="300.0001" height="42.6265" x="0" y="175.86069999999998" version="1.1" preserveAspectRatio="none" viewBox="-0.0977 -30.0391 214.1602 30.4297">
          <g transform="matrix(1 0 0 1 0 0)" class="aD6z1nYkhcolor"><path d="M25.31-28.01L30.98-28.01L17.71-1.00Q17.40-0.37 16.79 0.01Q16.17 0.39 15.43 0.39L15.43 0.39Q14.71 0.39 14.09 0.01Q13.48-0.37 13.14-1.00L13.14-1.00L-0.10-28.01L5.59-28.01L15.43-7.83L25.31-28.01Z M38.44-30.04L38.44-25.45L33.36-25.45L33.36-30.04L38.44-30.04ZM38.44-21.11L38.44 0L33.36 0L33.36-21.11L38.44-21.11Z M66.46-30.04L66.46-7.13Q66.46-5.82 66.13-4.78Q65.80-3.73 65.25-2.94Q64.71-2.15 63.98-1.59Q63.26-1.04 62.47-0.68Q61.68-0.33 60.87-0.17Q60.06 0 59.34 0L59.34 0L50.18 0Q48.87 0 47.83-0.33Q46.80-0.66 46.01-1.22Q45.21-1.78 44.66-2.50Q44.10-3.22 43.75-4.01Q43.40-4.80 43.23-5.62Q43.07-6.43 43.07-7.13L43.07-7.13L43.07-14.00Q43.07-15.96 43.78-17.31Q44.49-18.67 45.56-19.52Q46.62-20.37 47.87-20.74Q49.12-21.11 50.18-21.11L50.18-21.11L59.34-21.11L59.34-16.04L50.21-16.04Q49.20-16.04 48.67-15.52Q48.14-15 48.14-14.00L48.14-14.00L48.14-7.17Q48.14-6.13 48.66-5.61Q49.18-5.08 50.18-5.08L50.18-5.08L59.34-5.08Q60.37-5.08 60.88-5.61Q61.39-6.13 61.39-7.13L61.39-7.13L61.39-30.04L66.46-30.04Z M93.11-14.12L93.11-6.99Q93.11-5.94 92.73-4.72Q92.36-3.50 91.53-2.45Q90.70-1.41 89.37-0.70Q88.03 0 86.11 0L86.11 0L76.95 0Q75.90 0 74.68-0.37Q73.46-0.74 72.41-1.57Q71.37-2.40 70.66-3.74Q69.96-5.08 69.96-6.99L69.96-6.99Q69.96-8.05 70.33-9.28Q70.70-10.51 71.53-11.55Q72.36-12.60 73.70-13.30Q75.04-14.00 76.95-14.00L76.95-14.00L86.11-14.00L86.11-9.16L76.95-9.16Q75.92-9.16 75.35-8.53Q74.79-7.89 74.79-6.95L74.79-6.95Q74.79-5.96 75.44-5.40Q76.09-4.84 76.99-4.84L76.99-4.84L86.11-4.84Q87.15-4.84 87.71-5.47Q88.28-6.09 88.28-7.03L88.28-7.03L88.28-14.12Q88.28-15.12 87.67-15.70Q87.05-16.29 86.11-16.29L86.11-16.29L74.96-16.29L74.96-21.11L86.11-21.11Q87.17-21.11 88.39-20.74Q89.61-20.37 90.65-19.54Q91.70-18.71 92.40-17.37Q93.11-16.04 93.11-14.12L93.11-14.12Z M136.74-5.08L136.74 0L113.57 0Q113.03 0 112.56-0.20Q112.09-0.39 111.75-0.73Q111.41-1.07 111.21-1.54Q111.02-2.01 111.02-2.56L111.02-2.56L111.02-28.01L116.09-28.01L116.09-5.08L136.74-5.08Z M161.70-14.12L161.70-6.99Q161.70-5.94 161.33-4.72Q160.96-3.50 160.13-2.45Q159.30-1.41 157.96-0.70Q156.62 0 154.71 0L154.71 0L145.55 0Q144.49 0 143.27-0.37Q142.05-0.74 141.01-1.57Q139.96-2.40 139.26-3.74Q138.55-5.08 138.55-6.99L138.55-6.99Q138.55-8.05 138.93-9.28Q139.30-10.51 140.13-11.55Q140.96-12.60 142.29-13.30Q143.63-14.00 145.55-14.00L145.55-14.00L154.71-14.00L154.71-9.16L145.55-9.16Q144.51-9.16 143.95-8.53Q143.38-7.89 143.38-6.95L143.38-6.95Q143.38-5.96 144.03-5.40Q144.69-4.84 145.59-4.84L145.59-4.84L154.71-4.84Q155.74-4.84 156.31-5.47Q156.88-6.09 156.88-7.03L156.88-7.03L156.88-14.12Q156.88-15.12 156.26-15.70Q155.64-16.29 154.71-16.29L154.71-16.29L143.55-16.29L143.55-21.11L154.71-21.11Q155.76-21.11 156.98-20.74Q158.20-20.37 159.25-19.54Q160.29-18.71 161.00-17.37Q161.70-16.04 161.70-14.12L161.70-14.12Z M189.32-14.00L189.32-7.13Q189.32-6.41 189.15-5.61Q188.98-4.80 188.63-4.01Q188.28-3.22 187.72-2.50Q187.17-1.78 186.38-1.22Q185.59-0.66 184.55-0.33Q183.52 0 182.21 0L182.21 0L173.05 0Q172.32 0 171.52-0.17Q170.72-0.33 169.93-0.68Q169.14-1.04 168.42-1.59Q167.70-2.15 167.14-2.94Q166.58-3.73 166.25-4.78Q165.92-5.82 165.92-7.13L165.92-7.13L165.92-30.04L171.00-30.04L171.00-7.13Q171.00-6.19 171.58-5.63Q172.17-5.08 173.05-5.08L173.05-5.08L182.21-5.08Q183.16-5.08 183.70-5.64Q184.24-6.21 184.24-7.13L184.24-7.13L184.24-14.00Q184.24-14.96 183.67-15.50Q183.11-16.04 182.21-16.04L182.21-16.04L173.05-16.04L173.05-21.11L182.21-21.11Q182.93-21.11 183.73-20.95Q184.53-20.78 185.32-20.43Q186.11-20.08 186.84-19.52Q187.56-18.96 188.11-18.17Q188.65-17.38 188.98-16.35Q189.32-15.31 189.32-14.00L189.32-14.00Z M214.06-7.13L214.06-7.13Q214.06-5.82 213.73-4.78Q213.40-3.73 212.85-2.94Q212.30-2.15 211.58-1.59Q210.86-1.04 210.07-0.68Q209.28-0.33 208.47-0.17Q207.66 0 206.93 0L206.93 0L193.18 0L193.18-5.08L206.89-5.08Q207.93-5.08 208.46-5.61Q208.98-6.13 208.98-7.13L208.98-7.13Q208.89-9.16 206.93-9.16L206.93-9.16L199.06-9.16Q197.38-9.16 196.21-9.75Q195.04-10.33 194.31-11.21Q193.57-12.09 193.25-13.11Q192.93-14.12 192.93-15L192.93-15Q192.93-16.70 193.54-17.86Q194.14-19.02 195.06-19.75Q195.98-20.47 197.05-20.79Q198.13-21.11 199.06-21.11L199.06-21.11L211.54-21.11L211.54-16.04L199.10-16.04Q198.71-16.04 198.49-15.95Q198.26-15.86 198.15-15.71Q198.05-15.57 198.03-15.40Q198.01-15.23 198.01-15.08L198.01-15.08Q198.03-14.77 198.13-14.59Q198.22-14.41 198.37-14.34Q198.52-14.26 198.70-14.25Q198.89-14.24 199.06-14.24L199.06-14.24L206.93-14.24Q208.89-14.24 210.25-13.54Q211.62-12.83 212.46-11.77Q213.30-10.70 213.68-9.45Q214.06-8.20 214.06-7.13Z"></path></g>
        </svg>
      </g><g opacity="1" transform="rotate(0 75.0002 0)">
        <svg width="150" height="150.2849" x="75.0002" y="0" version="1.1" preserveAspectRatio="none" viewBox="6.059000015258789 5.51200008392334 78.43800354003906 78.58699798583984">
          <g transform="matrix(1 0 0 1 0 0)" class="aLgOaV3zRcolors-0"><g><path d="M77.101 47.19l.042 9.823H62.54V37.366h-5.058l-.042 29.029H42.894v-38.41h-5.093l.041 29.028H23.247v-19.62l-5.065.057-.042 9.74H6.059c1.232 20.59 18.319 36.909 39.219 36.909S83.264 67.78 84.497 47.19h-7.396z"></path><path d="M13.392 42.421l.041-9.686 14.581-.164v19.673h5.052l-.041-29.028h14.636v38.41h5.017l.042-29.029h14.588v19.646h5.045l-.042-9.823h12.185C83.264 21.831 66.178 5.512 45.278 5.512S7.291 21.831 6.059 42.421h7.333z"></path></g></g>
        </svg>
      </g></svg>